<?xml version="1.0" encoding="UTF-8" standalone="no"?>
<svg
   viewBox="0.0 0.0 348.0 348.0"
   fill="none"
   version="1.1"
   id="svg838"
   sodipodi:docname="Forget Fractal.svg"
   inkscape:version="1.1 (c68e22c387, 2021-05-23)"
   xmlns:inkscape="http://www.inkscape.org/namespaces/inkscape"
   xmlns:sodipodi="http://sodipodi.sourceforge.net/DTD/sodipodi-0.dtd"
   xmlns="http://www.w3.org/2000/svg"
   xmlns:svg="http://www.w3.org/2000/svg">
  <defs
     id="defs842" />
  <sodipodi:namedview
     id="namedview840"
     pagecolor="#ffffff"
     bordercolor="#666666"
     borderopacity="1.0"
     inkscape:pageshadow="2"
     inkscape:pageopacity="0.0"
     inkscape:pagecheckerboard="0"
     showgrid="false"
     inkscape:zoom="0.86254836"
     inkscape:cx="255.63784"
     inkscape:cy="124.63069"
     inkscape:window-width="1858"
     inkscape:window-height="1057"
     inkscape:window-x="1974"
     inkscape:window-y="-8"
     inkscape:window-maximized="1"
     inkscape:current-layer="svg838"
     inkscape:snap-page="true"
     inkscape:snap-bbox="true"
     inkscape:snap-bbox-edge-midpoints="true"
     inkscape:bbox-nodes="true"
     inkscape:bbox-paths="true"
     inkscape:snap-center="true"
     inkscape:snap-object-midpoints="true"
     inkscape:snap-text-baseline="true"
     inkscape:snap-midpoints="true"
     inkscape:snap-smooth-nodes="true"
     inkscape:snap-intersection-paths="true"
     inkscape:object-paths="true"
     inkscape:snap-bbox-midpoints="true"
     inkscape:snap-global="false" />
  <path
     d="M5.079 5.776h336.913v337.67H5.08z"
     stroke-width="2"
     stroke="#000"
     id="path834"
     style="stroke-width:4;stroke-miterlimit:4;stroke-dasharray:none" />
  <path
     d="M282.734 40.554c0-8.376 6.966-15.165 15.56-15.165 4.126 0 8.084 1.597 11.001 4.441 2.918 2.844 4.558 6.702 4.558 10.724 0 8.376-6.966 15.165-15.56 15.165-8.593 0-15.559-6.79-15.559-15.165z"
     stroke-width="2"
     stroke="#000"
     id="path836"
     style="stroke-width:4;stroke-miterlimit:4;stroke-dasharray:none" />
  <path
     id="rect963"
     style="fill:#00ff00;stroke:#000000;stroke-width:4;stroke-linecap:round;stroke-linejoin:round;paint-order:markers stroke fill"
     d="m 42.55196,156.16879 h 26.003981 v 25.43335 H 42.55196 Z" />
  <path
     id="rect963-6"
     style="fill:#00ff00;stroke:#000000;stroke-width:4;stroke-linecap:round;stroke-linejoin:round;paint-order:markers stroke fill"
     d="m 74.062874,156.16879 h 26.003976 v 25.43335 H 74.062874 Z" />
  <path
     id="rect963-3"
     style="fill:#00ff00;stroke:#000000;stroke-width:4;stroke-linecap:round;stroke-linejoin:round;paint-order:markers stroke fill"
     transform="rotate(-90)"
     d="m -213.68369,74.062874 h 26.00399 V 99.49622 h -26.00399 z" />
  <path
     id="rect963-62"
     style="fill:#00ff00;stroke:#000000;stroke-width:4;stroke-linecap:round;stroke-linejoin:round;paint-order:markers stroke fill"
     d="m 42.551956,188.25034 h 26.003981 v 25.43334 H 42.551956 Z" />
  <path
     id="rect963-9"
     style="fill:#00ff00;stroke:#000000;stroke-width:4;stroke-linecap:round;stroke-linejoin:round;paint-order:markers stroke fill"
     d="m 108.75749,156.16879 h 26.00398 v 25.43335 h -26.00398 z" />
  <path
     id="rect963-6-4"
     style="fill:#00ff00;stroke:#000000;stroke-width:4;stroke-linecap:round;stroke-linejoin:round;paint-order:markers stroke fill"
     d="m 140.2684,156.16879 h 26.00398 v 25.43335 H 140.2684 Z" />
  <path
     id="rect963-3-5"
     style="fill:#00ff00;stroke:#000000;stroke-width:4;stroke-linecap:round;stroke-linejoin:round;paint-order:markers stroke fill"
     transform="rotate(-90)"
     d="m -213.68369,140.2684 h 26.00399 v 25.43335 h -26.00399 z" />
  <path
     id="rect963-62-8"
     style="fill:#00ff00;stroke:#000000;stroke-width:4;stroke-linecap:round;stroke-linejoin:round;paint-order:markers stroke fill"
     d="m 108.75748,188.25034 h 26.00398 v 25.43334 h -26.00398 z" />
  <path
     id="rect963-9-5"
     style="fill:#ff00ff;stroke:#000000;stroke-width:4;stroke-linecap:round;stroke-linejoin:round;paint-order:markers stroke fill"
     transform="rotate(90)"
     d="m 221.8037,-166.27238 h 26.00398 v 25.43334 H 221.8037 Z" />
  <path
     id="rect963-6-4-6"
     style="fill:#ff00ff;stroke:#000000;stroke-width:4;stroke-linecap:round;stroke-linejoin:round;paint-order:markers stroke fill"
     transform="rotate(90)"
     d="m 253.31461,-166.27238 h 26.00398 v 25.43334 h -26.00398 z" />
  <path
     id="rect963-3-5-8"
     style="fill:#ff00ff;stroke:#000000;stroke-width:4;stroke-linecap:round;stroke-linejoin:round;paint-order:markers stroke fill"
     d="m 108.75749,253.31461 h 26.00398 v 25.43334 h -26.00398 z" />
  <path
     id="rect963-62-8-9"
     style="fill:#ff00ff;stroke:#000000;stroke-width:4;stroke-linecap:round;stroke-linejoin:round;paint-order:markers stroke fill"
     transform="rotate(90)"
     d="m 221.80368,-134.19084 h 26.00398 v 25.43334 h -26.00398 z" />
  <path
     id="rect963-4"
     style="fill:#0000ff;stroke:#000000;stroke-width:4;stroke-linecap:round;stroke-linejoin:round;paint-order:markers stroke fill"
     d="m 43.122597,221.8037 h 26.00398 v 25.43334 h -26.00398 z" />
  <path
     id="rect963-6-42"
     style="fill:#0000ff;stroke:#000000;stroke-width:4;stroke-linecap:round;stroke-linejoin:round;paint-order:markers stroke fill"
     d="m 74.633507,221.8037 h 26.003983 v 25.43334 H 74.633507 Z" />
  <path
     id="rect963-3-51"
     style="fill:#ffff00;stroke:#000000;stroke-width:4;stroke-linecap:round;stroke-linejoin:round;paint-order:markers stroke fill"
     transform="rotate(-90)"
     d="m -279.31857,74.633507 h 26.00398 v 25.433343 h -26.00398 z" />
  <path
     id="rect963-1"
     style="fill:#ff0000;stroke:#000000;stroke-width:4;stroke-linecap:round;stroke-linejoin:round;paint-order:markers stroke fill"
     d="m 181.02856,156.16879 h 26.00399 v 25.43335 h -26.00399 z" />
  <path
     id="rect963-6-7"
     style="fill:#ff0000;stroke:#000000;stroke-width:4;stroke-linecap:round;stroke-linejoin:round;paint-order:markers stroke fill"
     d="m 212.53949,156.16879 h 26.00398 v 25.43335 h -26.00398 z" />
  <path
     id="rect963-3-9"
     style="fill:#ff0000;stroke:#000000;stroke-width:4;stroke-linecap:round;stroke-linejoin:round;paint-order:markers stroke fill"
     transform="rotate(-90)"
     d="m -213.68369,212.53949 h 26.00399 v 25.43335 h -26.00399 z" />
  <path
     id="rect963-62-6"
     style="fill:#ff0000;stroke:#000000;stroke-width:4;stroke-linecap:round;stroke-linejoin:round;paint-order:markers stroke fill"
     d="m 181.02856,188.25034 h 26.00399 v 25.43334 h -26.00399 z" />
  <path
     id="rect963-9-7"
     style="fill:#ff0000;stroke:#000000;stroke-width:4;stroke-linecap:round;stroke-linejoin:round;paint-order:markers stroke fill"
     d="m 247.23412,156.16879 h 26.00398 v 25.43335 h -26.00398 z" />
  <path
     id="rect963-6-4-2"
     style="fill:#ff0000;stroke:#000000;stroke-width:4;stroke-linecap:round;stroke-linejoin:round;paint-order:markers stroke fill"
     d="m 278.74503,156.16879 h 26.00398 v 25.43335 h -26.00398 z" />
  <path
     id="rect963-3-5-6"
     style="fill:#ff0000;stroke:#000000;stroke-width:4;stroke-linecap:round;stroke-linejoin:round;paint-order:markers stroke fill"
     transform="rotate(-90)"
     d="m -213.68369,278.74503 h 26.00399 v 25.43334 h -26.00399 z" />
  <path
     id="rect963-62-8-0"
     style="fill:#ff0000;stroke:#000000;stroke-width:4;stroke-linecap:round;stroke-linejoin:round;paint-order:markers stroke fill"
     d="m 247.23409,188.25034 h 26.00398 v 25.43334 h -26.00398 z" />
  <path
     id="rect963-9-5-7"
     style="fill:#ff0000;stroke:#000000;stroke-width:4;stroke-linecap:round;stroke-linejoin:round;paint-order:markers stroke fill"
     transform="rotate(90)"
     d="m 221.8037,-304.74902 h 26.00398 v 25.43334 H 221.8037 Z" />
  <path
     id="rect963-6-4-6-7"
     style="fill:#ff0000;stroke:#000000;stroke-width:4;stroke-linecap:round;stroke-linejoin:round;paint-order:markers stroke fill"
     transform="rotate(90)"
     d="m 253.31461,-304.74902 h 26.00398 v 25.43334 h -26.00398 z" />
  <path
     id="rect963-3-5-8-4"
     style="fill:#ff0000;stroke:#000000;stroke-width:4;stroke-linecap:round;stroke-linejoin:round;paint-order:markers stroke fill"
     d="m 247.23412,253.31461 h 26.00398 v 25.43334 h -26.00398 z" />
  <path
     id="rect963-62-8-9-2"
     style="fill:#ff0000;stroke:#000000;stroke-width:4;stroke-linecap:round;stroke-linejoin:round;paint-order:markers stroke fill"
     transform="rotate(90)"
     d="m 221.80368,-272.66748 h 26.00398 v 25.43335 h -26.00398 z" />
  <path
     id="rect963-4-4"
     style="fill:#ff0000;stroke:#000000;stroke-width:4;stroke-linecap:round;stroke-linejoin:round;paint-order:markers stroke fill"
     d="m 181.59921,221.8037 h 26.00398 v 25.43334 h -26.00398 z" />
  <path
     id="rect963-6-42-6"
     style="fill:#ff0000;stroke:#000000;stroke-width:4;stroke-linecap:round;stroke-linejoin:round;paint-order:markers stroke fill"
     d="m 213.11012,221.8037 h 26.00398 v 25.43334 h -26.00398 z" />
  <path
     id="rect963-3-51-3"
     style="fill:#ff0000;stroke:#000000;stroke-width:4;stroke-linecap:round;stroke-linejoin:round;paint-order:markers stroke fill"
     transform="rotate(-90)"
     d="m -279.3186,213.11012 h 26.00398 v 25.43335 h -26.00398 z" />
  <path
     id="rect963-62-2-0"
     style="fill:#ff0000;stroke:#000000;stroke-width:4;stroke-linecap:round;stroke-linejoin:round;paint-order:markers stroke fill"
     d="m 181.5992,253.88522 h 26.00398 v 25.43335 H 181.5992 Z" />
  <path
     id="rect4176"
     style="fill:#00ff00;stroke:#000000;stroke-width:4;stroke-linecap:round;stroke-linejoin:round;paint-order:markers stroke fill"
     d="m 43.122589,266.6019 h 26.003983 v 12.71667 H 43.122589 Z" />
  <path
     id="rect4508"
     style="fill:#ffff00;stroke:#000000;stroke-width:4;stroke-linecap:round;stroke-linejoin:round;paint-order:markers stroke fill"
     d="M 56.12458,253.88522 H 69.126573 V 266.6019 H 56.12458 Z" />
  <path
     id="rect4576"
     style="fill:#0000ff;stroke:#000000;stroke-width:4;stroke-linecap:round;stroke-linejoin:round;paint-order:markers stroke fill"
     d="M 43.122589,253.88522 H 56.12458 v 6.35834 H 43.122589 Z" />
  <path
     id="rect4823"
     style="fill:#00ffff;stroke:#000000;stroke-width:4;stroke-linecap:round;stroke-linejoin:round;paint-order:markers stroke fill"
     d="m 43.122589,260.24356 h 6.500996 v 6.35834 h -6.500996 z" />
  <path
     id="rect4913"
     style="fill:#ff0000;stroke:#000000;stroke-width:4;stroke-linecap:round;stroke-linejoin:round;paint-order:markers stroke fill"
     d="m 49.623585,260.24356 h 6.500995 v 3.17917 h -6.500995 z" />
  <path
     id="rect5157"
     style="fill:#00ff00;stroke:#000000;stroke-width:4;stroke-linecap:round;stroke-linejoin:round;paint-order:markers stroke fill"
     d="m 52.874084,263.42273 h 3.250497 v 3.17917 h -3.250497 z" />
  <path
     id="rect5335"
     style="fill:#ff00ff;stroke:#000000;stroke-width:4;stroke-linecap:round;stroke-linejoin:round;paint-order:markers stroke fill"
     d="m 49.623585,265.01233 h 3.250499 v 1.58958 h -3.250499 z" />
  <path
     id="rect5645"
     style="fill:#ff0000;stroke:#000000;stroke-width:4;stroke-linecap:round;stroke-linejoin:round;paint-order:markers stroke fill"
     d="m 51.248833,263.42273 h 1.62525 v 1.5896 h -1.62525 z" />
  <path
     id="rect6043"
     style="fill:#0000ff;stroke:#000000;stroke-width:4;stroke-linecap:round;stroke-linejoin:round;paint-order:markers stroke fill"
     d="m 49.623585,263.42273 h 1.625248 v 1.5896 h -1.625248 z" />
  <path
     id="rect6471"
     style="fill-opacity:0.368298;stroke:#000000;stroke-width:4;stroke-linecap:round;stroke-linejoin:round;paint-order:markers stroke fill"
     d="M 52.876324,53.081272 H 208.02121 V 103.90813 H 52.876324 Z" />
  <g
     aria-label="FRACTAL"
     transform="scale(0.90032155,1.1107143)"
     id="text11424"
     style="font-weight:bold;font-size:42.7659px;line-height:1.25;font-family:Consolas;-inkscape-font-specification:'Consolas Bold';fill:#000000;stroke-width:4">
    <path
       d="m 71.746499,60.62959 v 7.559207 h 10.315603 v 4.218121 H 71.746499 V 83.578674 H 66.526052 V 56.286179 h 16.12074 v 4.343411 z"
       id="path14163" />
    <path
       d="m 102.65154,83.578674 -3.842245,-8.77035 Q 98.266368,73.555417 97.284924,72.928963 96.324362,72.281628 95.008809,72.281628 H 94.027365 V 83.578674 H 88.890446 V 56.286179 h 7.955961 q 2.255233,0 4.092833,0.396754 1.83759,0.375872 3.13226,1.273789 1.29468,0.897917 1.98377,2.33876 0.70999,1.440843 0.70999,3.529022 0,1.503489 -0.43852,2.672869 -0.43852,1.16938 -1.23203,2.025533 -0.79351,0.835271 -1.90024,1.357316 -1.08585,0.522045 -2.38052,0.730863 1.00232,0.208817 1.83759,1.148498 0.83527,0.918799 1.67055,2.672869 l 4.36429,9.146222 z m -1.27379,-19.253007 q 0,-2.004652 -1.27378,-2.881687 -1.273794,-0.877035 -3.821372,-0.877035 h -2.255233 v 7.705379 h 2.088179 q 1.190262,0 2.150824,-0.250581 0.981444,-0.250581 1.670543,-0.751744 0.689099,-0.501163 1.064969,-1.232026 0.37587,-0.751744 0.37587,-1.712306 z"
       id="path14165" />
    <path
       d="m 127.45911,83.578674 -1.50349,-5.387501 h -9.5221 l -1.54525,5.387501 h -5.09516 l 8.08126,-27.292495 h 7.18333 l 8.08125,27.292495 z m -6.20189,-22.280866 -3.59167,12.696126 h 7.14157 z"
       id="path14167" />
    <path
       d="m 154.18779,82.513703 q -1.81671,0.730863 -3.52902,1.085853 -1.69143,0.35499 -3.52902,0.35499 -2.94433,0 -5.22045,-0.856153 -2.25523,-0.877035 -3.82137,-2.589341 -1.54525,-1.712307 -2.35964,-4.239003 -0.79351,-2.547578 -0.79351,-5.909546 0,-3.445495 0.87704,-6.118363 0.87703,-2.693751 2.50581,-4.531348 1.62878,-1.858479 3.94666,-2.819041 2.33876,-0.981444 5.24133,-0.981444 0.93968,0 1.75407,0.04176 0.83527,0.04176 1.62878,0.167054 0.79351,0.104409 1.6079,0.292346 0.81439,0.187936 1.69142,0.480281 v 5.095156 q -1.77495,-0.835272 -3.38285,-1.190262 -1.6079,-0.354991 -2.92345,-0.354991 -1.942,0 -3.3202,0.709981 -1.3782,0.689099 -2.27612,1.962888 -0.87703,1.252907 -1.29467,3.006977 -0.41763,1.733189 -0.41763,3.821367 0,2.21347 0.41763,3.96754 0.43852,1.733188 1.33644,2.944332 0.89791,1.211144 2.29699,1.858479 1.39908,0.626454 3.32021,0.626454 0.6891,0 1.4826,-0.125291 0.81439,-0.146173 1.62878,-0.354991 0.83527,-0.229699 1.62878,-0.522044 0.81439,-0.313227 1.50349,-0.626454 z"
       id="path14169" />
    <path
       d="m 171.12292,60.566945 v 23.011729 h -5.26221 V 60.566945 h -7.47568 v -4.280766 h 20.21357 v 4.280766 z"
       id="path14171" />
    <path
       d="m 197.99778,83.578674 -1.50349,-5.387501 h -9.52209 l -1.54525,5.387501 h -5.09516 l 8.08125,-27.292495 h 7.18334 l 8.08125,27.292495 z m -6.20189,-22.280866 -3.59166,12.696126 h 7.14157 z"
       id="path14173" />
    <path
       d="M 207.87486,83.578674 V 56.286179 h 5.22045 v 22.886438 h 11.52675 v 4.406057 z"
       id="path14175" />
  </g>
</svg>
